# xmcd CD database file
#
# Track frame offsets:
#	150
#	15126
#	31203
#	48679
#	64174
#	83715
#	97688
#	121870
#	135756
#	149017
#	159941
#	173700
#	195973
#	209918
#	231494
#	248748
#	263780
#
# Disc length: 3717 seconds
#
# Revision: 0
# Processed by: cddbd v1.5.2PL0 Copyright (c) Steve Scherf et al.
# Submitted via: CDex 1.51
#
DISCID=da0e8311
DTITLE=Various Artist - Balli 1° corso base 2011/2012
DYEAR=2011
DGENRE=Country
TTITLE0=Rednex - Cotton eye joe
TTITLE1=Dean Brothers - Dancing on a Saturday night
TTITLE2=Kid Rock - Rock bottom blues
TTITLE3=Brady Seals - Country as a boy can be
TTITLE4=John Littleton - Pick a bale o cotton
TTITLE5=Keith Urban and The Ranch - Walkin' the country
TTITLE6=Maurice John Vaughn - (Everything i do) got to be funky
TTITLE7=Lee Kernaghan - Bare essential
TTITLE8=Toby Keith - A little less talk and a lot more action
TTITLE9=Sunny Sweeney - If i could
TTITLE10=Heather Myles - Who did you call darlin'
TTITLE11=Deana Carter - Strawberry wine
TTITLE12=Travis Tritt - T.r.o.u.b.l.e.
TTITLE13=Keith Urbani - Better Life
TTITLE14=Martina McBride - Wild angel
TTITLE15=Carlene Carter - Little love letters
TTITLE16=Jo Dee Messina - Bye bye
EXTD=YEAR: 2011
EXTT0=
EXTT1=
EXTT2=
EXTT3=
EXTT4=
EXTT5=
EXTT6=
EXTT7=
EXTT8=
EXTT9=
EXTT10=
EXTT11=
EXTT12=
EXTT13=
EXTT14=
EXTT15=
EXTT16=
PLAYORDER=
